<?xml version="1.0" standalone="no"?>
<!DOCTYPE svg PUBLIC "-//W3C//DTD SVG 20010904//EN"
 "http://www.w3.org/TR/2001/REC-SVG-20010904/DTD/svg10.dtd">
<svg version="1.0" xmlns="http://www.w3.org/2000/svg"
 width="5315.000000pt" height="5315.000000pt" viewBox="0 0 5315.000000 5315.000000"
 preserveAspectRatio="xMidYMid meet">

<g transform="translate(0.000000,5315.000000) scale(0.100000,-0.100000)"
fill="#000000" stroke="none">
<path d="M26069 46136 c-2 -2 -107 -6 -234 -10 -516 -14 -1180 -69 -1785 -147
-1954 -251 -3903 -812 -5680 -1637 -341 -158 -895 -435 -1055 -526 -22 -13
-76 -42 -120 -66 -439 -236 -1073 -622 -1555 -948 -3468 -2343 -6108 -5742
-7500 -9657 -624 -1753 -985 -3540 -1100 -5435 -35 -578 -35 -1704 0 -2265 5
-82 12 -190 15 -240 3 -49 8 -108 10 -130 2 -22 7 -78 11 -125 3 -47 17 -195
30 -330 287 -2893 1209 -5663 2713 -8152 1638 -2712 3927 -5002 6641 -6645
2120 -1283 4467 -2150 6910 -2552 649 -107 1452 -197 2015 -226 66 -4 140 -8
163 -10 226 -19 1332 -27 1768 -13 198 7 603 30 759 43 323 27 446 39 605 56
1685 182 3315 574 4895 1177 3404 1300 6427 3580 8633 6510 1403 1863 2438
3906 3111 6137 467 1552 751 3260 808 4870 15 425 8 1561 -12 1785 -2 25 -6
99 -10 165 -6 123 -32 482 -40 545 -2 19 -7 67 -10 105 -26 302 -87 801 -140
1148 -444 2864 -1497 5553 -3109 7942 -1234 1828 -2756 3425 -4521 4745 -2365
1769 -5048 2961 -7945 3529 -716 140 -1584 257 -2270 306 -47 3 -110 8 -140
10 -124 10 -430 26 -660 35 -231 9 -1192 14 -1201 6z m618 -668 c-9 -69 -32
-98 -99 -125 -183 -74 -573 -76 -1044 -7 -56 8 -125 21 -155 30 -142 42 -187
27 -326 -111 l-93 -90 0 -133 0 -132 86 0 c47 0 167 11 267 24 465 63 772 77
877 42 30 -10 59 -22 63 -26 5 -4 -3 -19 -17 -33 -21 -22 -26 -35 -26 -79 0
-66 29 -173 82 -299 l40 -97 121 -42 c67 -23 176 -61 242 -83 111 -37 129 -47
265 -146 80 -59 156 -114 170 -123 20 -12 29 -32 43 -90 9 -41 17 -85 17 -99
0 -37 -52 -119 -109 -172 l-51 -48 0 -74 c0 -69 1 -74 23 -77 36 -5 28 -77
-21 -181 -48 -102 -109 -172 -177 -202 -58 -26 -78 -47 -94 -96 -21 -65 -108
-195 -139 -208 -16 -7 -44 -28 -63 -47 -33 -34 -33 -34 -16 -63 19 -33 23
-125 6 -184 -8 -30 -24 -47 -82 -88 -40 -28 -95 -62 -123 -75 -64 -30 -86 -54
-120 -129 -35 -79 -114 -395 -114 -456 0 -64 22 -165 65 -297 31 -98 41 -115
86 -161 115 -117 209 -157 397 -167 116 -6 361 7 497 27 115 17 262 57 324 89
68 34 98 67 107 118 11 59 93 132 184 165 69 25 223 57 274 57 14 0 55 40 131
127 61 70 164 183 231 252 68 72 154 174 198 238 83 122 124 168 157 178 32
10 58 -21 65 -77 l7 -49 61 7 c366 37 666 109 865 208 107 54 174 79 196 74
15 -3 14 -6 -6 -33 l-24 -29 50 34 c83 57 235 170 316 235 76 61 79 62 225 99
297 76 622 168 785 221 92 30 180 55 197 55 16 0 41 -9 55 -21 25 -19 31 -19
87 -8 38 7 84 9 123 4 91 -11 94 -10 192 39 101 52 200 125 217 161 18 39 -11
71 -84 93 l-63 19 -32 79 c-51 124 -50 127 67 236 l100 93 0 92 0 91 78 47
c42 26 111 71 152 100 116 84 499 265 559 265 9 0 129 -42 267 -94 1662 -625
3216 -1473 4639 -2531 176 -130 195 -147 185 -165 -14 -26 -63 -62 -136 -99
-103 -51 -115 -78 -94 -219 5 -37 17 -132 26 -212 20 -187 36 -248 80 -317 20
-32 56 -99 80 -149 51 -106 90 -146 166 -169 65 -19 186 -19 275 -1 37 8 149
40 248 70 236 73 309 88 372 77 36 -7 55 -18 76 -43 49 -59 106 -162 117 -213
6 -27 22 -88 35 -135 14 -47 29 -131 34 -186 5 -56 16 -116 25 -133 42 -80
190 -181 266 -181 27 0 66 18 156 71 65 40 148 85 184 101 l64 30 146 -148
c80 -82 215 -223 299 -314 l152 -165 -118 -8 c-83 -6 -132 -5 -166 3 -90 23
-271 -21 -331 -79 -37 -36 -99 -60 -178 -68 -55 -6 -61 -3 -218 71 l-161 76
-159 0 c-87 0 -192 -5 -233 -10 -63 -9 -81 -8 -118 6 -24 9 -55 16 -69 15
-166 -7 -168 -8 -217 -39 -26 -17 -68 -51 -92 -76 -39 -40 -46 -43 -68 -33
-17 8 -40 7 -87 -2 -55 -11 -68 -11 -94 3 -44 23 -74 20 -139 -13 -32 -16 -76
-33 -98 -37 -66 -11 -110 -33 -127 -62 -9 -15 -46 -48 -83 -72 -50 -34 -68
-52 -72 -74 -9 -45 -155 -181 -262 -246 -51 -30 -124 -76 -164 -101 -40 -26
-101 -61 -137 -79 -36 -18 -121 -67 -190 -110 -69 -42 -177 -105 -242 -139
-64 -35 -152 -92 -195 -127 -140 -116 -194 -154 -277 -194 -101 -50 -157 -64
-354 -90 -86 -12 -186 -27 -222 -35 -36 -8 -98 -19 -138 -25 -99 -14 -132 -32
-132 -71 0 -43 33 -101 80 -142 30 -25 77 -47 183 -82 78 -27 159 -57 180 -68
71 -36 108 -110 106 -208 -1 -30 2 -66 6 -78 4 -14 2 -33 -6 -48 -11 -20 -10
-35 0 -86 30 -139 31 -160 15 -292 -22 -171 -11 -280 29 -307 16 -10 -5 -30
-83 -84 -64 -43 -73 -46 -132 -47 -62 0 -110 13 -283 77 -93 34 -198 35 -287
4 -80 -28 -147 -28 -271 1 -89 22 -115 23 -281 19 -174 -4 -187 -6 -237 -31
-30 -15 -82 -52 -116 -83 l-63 -56 0 -90 c0 -88 1 -90 18 -75 30 27 66 20 123
-23 30 -22 79 -50 109 -61 67 -25 186 -49 245 -49 40 0 46 -4 90 -57 l47 -58
-4 -75 c-3 -64 -9 -87 -44 -156 -37 -73 -40 -83 -28 -105 21 -38 16 -82 -16
-151 -34 -72 -39 -144 -15 -223 14 -48 14 -50 -10 -81 -24 -32 -93 -85 -190
-147 -109 -70 -114 -133 -27 -311 l62 -126 290 0 c225 0 302 -3 347 -15 31 -8
92 -15 134 -15 86 0 51 -15 391 173 l195 109 45 78 c25 42 65 122 88 176 23
54 59 132 79 173 21 42 55 123 76 180 l38 103 171 153 c94 83 191 174 217 201
64 69 169 269 169 322 l0 41 178 140 177 140 74 1 c63 0 77 3 103 25 19 16 42
25 65 25 32 0 46 -10 116 -81 l79 -80 212 11 211 12 105 78 c99 73 295 190
319 190 15 0 141 -108 256 -221 124 -122 191 -169 375 -264 80 -41 186 -104
235 -140 214 -156 436 -305 454 -305 39 0 127 -41 204 -96 l77 -55 0 -72 0
-72 45 -42 c24 -23 52 -54 61 -68 16 -24 16 -28 -1 -65 -17 -39 -17 -39 13
-103 l30 -64 -24 -69 c-26 -76 -29 -115 -14 -145 9 -16 22 -19 75 -19 l65 0 0
359 0 359 34 16 c39 19 98 21 129 5 12 -6 43 -32 69 -57 49 -47 87 -59 191
-61 31 -1 37 2 37 20 0 50 -47 79 -129 79 -105 0 -407 142 -659 309 -268 178
-290 199 -419 403 -61 95 -137 219 -169 275 l-59 103 -72 0 c-40 0 -73 3 -73
6 0 12 73 249 79 256 3 4 64 8 134 9 127 2 128 2 156 -25 16 -15 44 -58 62
-96 l34 -67 265 -131 c146 -72 328 -154 405 -182 249 -90 422 -165 391 -168
-15 -2 -26 -9 -24 -15 5 -16 258 -167 280 -167 25 0 85 -56 115 -107 33 -56
63 -154 63 -204 0 -22 -12 -76 -27 -120 -31 -91 -30 -96 38 -148 41 -31 45
-38 55 -100 13 -76 35 -126 63 -141 11 -5 85 -10 168 -10 l148 0 67 -117 c37
-65 71 -130 77 -144 11 -31 47 -59 76 -60 44 -1 -19 -18 -72 -18 -45 -1 -57 3
-88 30 -20 18 -38 29 -41 27 -2 -3 -12 -38 -20 -79 -18 -83 -15 -252 7 -351
l12 -58 51 0 c28 0 69 -7 91 -15 57 -20 150 -19 187 3 37 21 107 113 144 188
28 57 44 174 30 227 -3 13 -53 89 -111 167 -111 152 -132 195 -121 255 14 72
116 254 180 321 69 71 100 83 160 64 72 -22 146 -23 246 -1 136 30 170 28 231
-14 54 -37 101 -54 209 -75 63 -12 68 -12 150 17 47 17 92 33 101 37 11 5 26
-14 61 -81 l47 -88 -65 -38 c-41 -24 -73 -52 -89 -77 -35 -55 -58 -67 -155
-80 -47 -5 -95 -13 -107 -15 -20 -5 -13 -21 106 -228 70 -122 137 -251 151
-287 33 -92 45 -114 118 -217 61 -85 67 -91 90 -82 17 7 49 3 111 -12 86 -21
255 -28 319 -14 l29 6 121 -283 c176 -413 327 -800 462 -1189 l58 -166 -126
-18 c-133 -20 -259 -25 -303 -13 -14 4 -38 19 -55 33 -57 51 -251 139 -542
245 l-133 49 -42 -19 c-61 -27 -185 -48 -356 -60 -139 -10 -156 -9 -231 10
-139 36 -250 81 -421 172 l-165 88 -255 20 c-335 26 -302 29 -334 -27 -36 -65
-59 -156 -51 -207 4 -23 19 -75 33 -116 42 -120 23 -161 -123 -266 -91 -65
-136 -81 -244 -89 -92 -6 -102 -5 -320 48 -124 30 -297 72 -385 92 -171 40
-248 74 -392 170 l-72 47 -3 81 -3 80 -185 77 c-102 42 -244 93 -315 114 -132
38 -185 63 -385 189 -52 32 -96 60 -98 62 -8 7 -32 309 -32 413 l0 124 -50
116 c-28 64 -50 130 -50 147 0 60 -29 149 -57 173 -22 20 -33 23 -72 17 -60
-9 -218 -48 -361 -90 -63 -18 -169 -41 -235 -49 -125 -17 -450 -22 -427 -7 29
18 -65 21 -600 21 l-549 0 -72 -65 c-107 -96 -241 -200 -446 -347 l-184 -131
-181 12 c-235 16 -389 36 -418 55 -28 18 -119 40 -289 71 l-126 22 -32 -76
c-41 -100 -97 -173 -184 -241 -39 -30 -159 -136 -266 -235 -139 -127 -244
-214 -359 -295 l-164 -114 6 -51 c4 -27 16 -111 27 -185 31 -196 36 -184 -174
-391 l-172 -168 -82 -1 -81 0 -64 -82 c-36 -46 -97 -130 -138 -188 -40 -58
-117 -148 -170 -200 -68 -67 -111 -120 -146 -179 -33 -56 -79 -114 -140 -175
-80 -80 -110 -122 -243 -334 -83 -134 -151 -245 -151 -246 0 -1 13 -1 30 2 89
13 13 -128 -200 -368 -112 -126 -142 -171 -181 -269 -16 -42 -31 -66 -40 -65
-12 1 -18 -23 -27 -115 -7 -64 -23 -165 -37 -226 -27 -120 -31 -175 -14 -208
7 -12 47 -59 90 -103 89 -94 85 -81 93 -322 4 -133 2 -165 -16 -235 -23 -92
-52 -161 -92 -226 -37 -57 -102 -259 -122 -374 -22 -127 -15 -373 14 -472 11
-38 19 -71 17 -73 -2 -3 -19 6 -37 19 -53 38 160 -220 420 -509 86 -95 161
-171 167 -169 6 3 9 25 7 53 -2 27 -1 46 2 43 8 -8 110 -297 196 -559 46 -140
108 -302 153 -401 42 -92 94 -218 115 -280 52 -149 77 -201 132 -274 204 -267
212 -276 314 -355 57 -43 109 -86 116 -95 18 -22 2 -35 -49 -42 -23 -3 -40 -7
-38 -9 2 -3 93 -25 203 -50 109 -25 275 -66 368 -91 233 -63 234 -62 482 61
146 73 203 107 244 146 29 27 58 50 64 50 6 0 70 7 141 15 72 8 231 18 355 21
l225 6 59 -27 c95 -42 133 -43 297 -1 79 20 209 55 289 79 l145 43 -3 38 c-5
57 56 111 179 160 52 21 110 47 129 58 37 22 306 77 417 85 82 6 151 -14 288
-86 227 -119 361 -221 550 -420 33 -35 78 -78 100 -96 85 -70 236 -137 368
-165 54 -11 55 -11 85 20 53 53 70 45 184 -89 87 -101 113 -144 152 -253 10
-27 23 -48 30 -48 16 0 26 -72 26 -180 0 -80 -9 -102 -62 -155 -53 -53 -58
-108 -27 -312 11 -76 18 -149 16 -161 -3 -13 13 -85 34 -159 26 -88 39 -155
39 -194 0 -54 7 -72 94 -244 106 -207 125 -268 107 -339 -25 -101 -10 -140
101 -263 233 -260 288 -324 329 -383 66 -92 79 -122 79 -178 0 -52 28 -215 56
-327 10 -38 43 -120 75 -181 63 -124 84 -184 128 -359 17 -66 37 -140 46 -165
9 -25 23 -106 31 -180 8 -74 24 -184 36 -245 37 -194 14 -341 -80 -502 -22
-37 -59 -117 -82 -177 -39 -98 -50 -116 -107 -172 -78 -76 -105 -132 -143
-301 -16 -70 -43 -184 -59 -253 -17 -68 -31 -140 -31 -160 0 -19 14 -100 30
-180 17 -80 40 -214 51 -298 35 -264 82 -390 236 -628 167 -259 218 -358 350
-684 53 -130 90 -241 125 -375 26 -104 64 -237 83 -295 41 -125 82 -302 125
-540 65 -368 88 -455 172 -650 98 -230 210 -419 305 -513 39 -39 53 -47 83
-47 23 0 43 -7 52 -17 38 -43 120 -244 136 -332 l10 -53 -56 -67 c-483 -576
-1201 -1311 -1812 -1856 -1548 -1381 -3316 -2504 -5212 -3310 -2924 -1244
-6129 -1726 -9333 -1405 -1172 118 -2424 367 -3530 701 -251 76 -755 243 -755
250 0 4 12 10 28 14 15 3 45 17 68 30 39 23 42 28 63 112 15 57 52 147 107
258 49 100 106 234 136 325 79 233 78 247 -43 715 -36 137 -50 173 -174 425
-149 304 -165 353 -146 470 12 72 31 116 106 240 31 52 115 214 187 358 l130
264 -31 67 c-34 75 -41 143 -16 178 8 12 85 56 171 98 133 65 165 86 218 139
98 99 203 267 216 349 4 23 17 89 30 147 16 80 21 129 18 205 -4 124 -18 155
-128 284 -44 52 -82 103 -86 113 -8 26 19 64 73 101 26 18 143 101 262 186
119 84 221 155 228 158 6 2 32 -3 57 -11 57 -20 136 -21 179 -3 46 20 156 142
272 303 55 76 134 184 176 239 133 177 283 415 338 537 76 169 163 470 205
713 15 83 33 170 41 195 23 69 66 115 131 140 82 30 111 47 191 106 39 29 109
74 155 99 104 58 132 79 241 185 96 91 129 139 152 217 25 84 49 96 299 154
351 82 508 136 636 221 142 93 219 172 331 340 55 81 135 187 178 235 113 123
203 283 232 411 8 38 6 51 -22 115 -26 58 -32 86 -33 147 -1 84 7 109 72 222
28 49 54 112 68 168 30 116 65 195 160 361 122 216 236 457 338 719 151 383
156 394 226 480 46 56 122 320 217 745 l37 170 1 250 c1 221 -1 254 -17 286
-37 78 -283 392 -566 724 l-110 129 -294 76 c-161 42 -412 114 -558 159 -1031
320 -947 291 -1210 417 l-243 116 -266 -102 c-146 -56 -306 -120 -356 -141
-162 -68 -256 -92 -380 -93 -82 -1 -124 4 -165 17 -133 44 -319 152 -405 236
-38 37 -43 47 -48 100 -6 74 7 149 33 181 79 98 315 460 346 530 10 21 19 87
24 165 5 72 16 180 25 240 35 226 5 357 -100 437 -106 81 -702 301 -1373 508
l-102 32 -122 181 c-73 108 -149 208 -188 247 -64 64 -68 66 -260 142 -107 42
-296 113 -419 158 -123 44 -236 91 -251 103 -15 12 -71 60 -126 105 -107 91
-146 112 -449 252 -110 50 -229 105 -265 122 -64 30 -69 31 -565 74 -275 24
-508 43 -517 44 -15 0 -15 4 -6 31 6 17 8 51 5 77 -12 107 -145 157 -316 117
-91 -22 -203 -84 -298 -165 -69 -58 -83 -76 -83 -99 0 -54 -29 -183 -54 -237
-33 -72 -66 -104 -108 -104 -68 0 -201 81 -354 217 -53 46 -63 62 -66 92 -3
31 -6 36 -27 33 -13 -1 -40 -17 -60 -35 -56 -50 -100 -74 -191 -102 -187 -58
-216 -77 -260 -163 -28 -58 -94 -123 -152 -151 l-47 -22 -118 92 c-136 107
-282 204 -331 220 -29 10 -65 3 -285 -52 -226 -56 -255 -66 -280 -92 -24 -26
-32 -29 -68 -23 -23 4 -57 15 -78 25 -82 42 -352 269 -574 482 l-108 104 2
110 c2 61 2 258 1 438 l-1 328 -93 154 -93 153 -70 13 c-112 19 -243 17 -284
-5 -47 -25 -116 -17 -257 29 -215 70 -414 187 -414 245 0 23 34 61 132 143
125 104 166 277 184 779 l7 187 83 103 c57 71 79 105 71 110 -38 25 -211 71
-283 75 -133 9 -162 -8 -234 -138 -25 -46 -81 -109 -201 -229 -91 -91 -173
-177 -183 -192 -9 -16 -31 -34 -50 -42 -84 -35 -369 -90 -726 -140 -102 -14
-197 -28 -211 -31 -25 -4 -27 -1 -31 40 -4 27 -37 111 -86 212 -44 93 -106
233 -137 313 -72 184 -186 526 -216 650 -17 71 -34 113 -68 164 -123 192 -106
340 62 539 151 178 221 286 277 425 28 70 39 87 79 116 110 80 331 204 502
281 69 31 145 75 190 109 88 68 156 102 224 115 68 13 607 5 667 -9 71 -17
138 5 216 73 136 118 445 227 606 214 58 -5 89 -15 171 -56 55 -27 120 -55
145 -61 59 -15 410 -24 524 -13 l90 8 24 48 c54 104 95 48 182 -248 23 -77 64
-190 91 -251 27 -61 59 -143 72 -181 13 -39 39 -92 57 -119 48 -69 172 -189
278 -269 78 -58 91 -72 96 -103 28 -157 67 -113 110 121 62 336 96 591 96 727
1 268 22 560 46 643 3 11 45 65 93 120 48 56 224 266 390 467 259 311 330 389
480 531 332 312 441 440 643 749 52 80 123 197 158 260 87 159 207 358 243
403 53 68 202 128 702 283 116 36 257 88 314 115 135 64 215 143 318 314 92
153 129 196 213 245 45 26 89 64 127 108 149 172 269 270 438 356 96 48 165
71 340 112 114 26 446 128 561 171 6 2 21 -20 34 -49 43 -100 71 -219 77 -329
6 -111 6 -112 -55 -231 -10 -21 225 7 323 38 93 30 200 93 340 202 153 118
168 138 200 267 17 68 45 267 45 324 0 23 12 59 30 93 39 72 48 135 26 191
-19 51 -56 87 -195 193 l-105 79 -65 0 c-36 0 -122 -13 -191 -28 -168 -38
-359 -47 -410 -20 -117 60 31 209 480 484 l105 64 250 -3 c443 -6 963 46 1200
119 104 32 163 65 235 133 37 34 101 80 147 104 116 61 347 152 579 228 l201
66 16 51 c44 145 54 319 23 392 -36 85 -77 111 -267 175 -205 68 -256 120
-354 362 -108 266 -316 719 -438 953 l-52 100 -95 47 c-52 26 -165 71 -250
100 l-155 51 -175 6 -175 7 -320 148 c-176 82 -342 159 -369 171 l-49 23 27
17 c34 23 26 31 -14 15 -19 -8 -29 -18 -26 -26 12 -31 -352 -273 -649 -432
-97 -52 -116 -66 -160 -124 -27 -35 -109 -127 -181 -204 -231 -244 -290 -324
-391 -529 -32 -66 -86 -160 -119 -210 -33 -49 -89 -139 -124 -198 -81 -136
-143 -205 -284 -314 -165 -129 -507 -424 -845 -731 l-103 -94 -62 7 c-108 12
-196 63 -241 139 -35 61 -43 93 -56 226 -13 148 -40 303 -83 488 -19 81 -37
164 -41 184 -8 52 -81 121 -235 223 l-125 83 -215 5 c-352 9 -489 47 -521 146
-6 20 -29 77 -50 127 -56 132 -67 188 -80 402 -14 221 -5 317 36 392 51 94 86
168 115 246 35 93 77 156 121 183 17 10 61 22 97 26 37 4 135 29 217 55 188
61 196 63 445 95 546 70 610 92 838 297 159 142 221 168 497 203 225 29 284
43 515 125 354 126 398 139 477 149 45 6 147 31 227 56 81 25 160 45 177 45
16 0 44 6 62 14 36 15 106 89 142 151 13 22 72 182 131 355 59 173 109 321
111 328 5 12 -356 -107 -581 -192 -186 -70 -282 -139 -421 -306 -83 -99 -136
-129 -198 -110 -67 20 -111 57 -322 272 -267 270 -416 432 -584 632 -22 27
-26 28 -87 23 -121 -12 -194 -61 -274 -186 -48 -75 -136 -167 -294 -306 -43
-39 -121 -123 -173 -187 -77 -96 -105 -122 -148 -143 -68 -34 -200 -48 -365
-40 -156 7 -388 23 -459 31 l-53 6 58 35 c477 289 1258 702 1784 943 226 103
657 291 699 305 22 7 22 6 7 -18 -16 -23 -15 -28 5 -83 12 -33 23 -61 25 -62
1 -2 37 4 78 13 61 14 87 26 129 59 28 24 68 49 87 56 19 7 86 37 148 67 l114
54 56 -11 c32 -6 80 -10 107 -8 43 3 50 6 53 26 2 12 -2 38 -8 57 l-11 34
-157 3 -157 3 170 63 c374 139 600 215 640 214 216 -3 231 -4 275 -26 43 -20
60 -21 340 -21 162 -1 307 -5 322 -9 17 -5 48 -3 78 4 39 9 57 9 79 0 22 -9
39 -9 71 0 38 10 46 9 71 -9 43 -32 100 -40 324 -45 116 -3 222 -8 236 -11 23
-6 34 2 98 81 47 57 71 95 69 108 -4 31 -79 55 -143 47 -27 -4 -142 -4 -255
-1 -113 4 -212 3 -220 -1 -8 -4 -141 -6 -295 -5 l-280 2 -60 31 c-33 17 -71
35 -84 38 -12 4 -19 11 -15 15 10 9 286 87 532 151 l163 43 82 -20 c152 -38
349 -23 461 33 26 14 31 13 55 -4 33 -25 81 -40 153 -49 43 -5 71 -16 110 -43
70 -48 98 -60 163 -67 47 -6 60 -3 98 19 25 15 64 29 88 33 63 9 86 26 86 63
0 37 24 66 77 93 22 11 63 35 90 54 28 18 71 38 96 43 25 6 70 21 100 34 30
13 98 37 150 52 60 17 121 43 165 70 39 24 90 48 115 54 25 5 75 21 112 35 49
19 122 32 285 50 671 77 1304 115 2087 124 l189 2 -6 -52z m-4117 -388 c0 -15
-35 -29 -58 -23 -42 10 -21 27 41 32 9 0 17 -3 17 -9z m-254 -49 c-7 -11 -87
-31 -118 -30 -13 0 9 9 47 19 39 10 71 18 73 19 2 0 1 -3 -2 -8z m-13743
-14816 c104 -132 193 -245 198 -251 5 -6 -2 -25 -16 -46 -40 -59 -112 -209
-130 -272 -12 -39 -16 -83 -14 -135 6 -113 31 -147 151 -205 51 -25 141 -61
201 -82 132 -45 232 -101 457 -258 274 -191 422 -281 655 -401 61 -31 98 -53
83 -50 -15 3 -56 8 -90 11 -151 15 0 -41 612 -226 234 -71 529 -161 655 -200
127 -38 258 -75 292 -82 81 -15 94 -4 127 106 28 90 50 128 70 120 34 -13 98
-188 111 -304 10 -90 30 -134 81 -179 24 -21 150 -109 280 -196 130 -86 356
-247 502 -358 282 -213 354 -266 682 -509 413 -305 613 -451 705 -513 104 -71
99 -69 653 -236 l293 -88 62 23 c156 59 304 70 382 30 47 -25 75 -75 130 -237
45 -134 50 -225 15 -326 -25 -74 -207 -442 -367 -741 -60 -113 -169 -320 -241
-460 l-132 -255 -190 -230 -189 -230 -1 -290 c0 -323 -5 -296 75 -407 29 -40
30 -45 29 -147 -1 -122 -20 -242 -70 -458 l-35 -153 162 -212 c89 -117 168
-224 175 -238 7 -14 40 -111 74 -216 47 -147 80 -228 141 -345 43 -85 131
-255 194 -379 123 -242 151 -283 329 -476 150 -163 225 -267 298 -413 73 -146
107 -191 244 -326 110 -109 157 -172 152 -204 -2 -15 13 -31 62 -66 65 -46
361 -195 386 -195 20 0 17 19 -7 60 -21 35 25 -10 417 -410 110 -113 217 -221
238 -240 65 -60 134 -220 265 -615 65 -198 142 -414 170 -480 l51 -120 0 -610
c0 -490 3 -628 15 -700 8 -49 15 -141 15 -204 0 -100 -4 -124 -29 -200 -55
-159 -74 -288 -92 -627 -18 -347 -7 -482 61 -703 38 -126 52 -202 100 -536 72
-511 75 -545 75 -940 0 -342 -2 -371 -29 -575 -24 -174 -29 -252 -30 -410 0
-225 10 -286 74 -435 22 -53 45 -117 51 -144 9 -46 25 -63 312 -348 206 -204
350 -338 452 -419 153 -121 187 -159 205 -223 5 -20 10 -120 10 -223 0 -254
20 -342 136 -604 30 -69 54 -128 51 -130 -2 -2 -102 38 -223 90 -969 415
-1945 938 -2839 1520 -1485 966 -2846 2151 -3996 3476 -2717 3135 -4318 7017
-4593 11140 -55 815 -55 1735 0 2550 50 754 149 1534 290 2280 34 179 130 641
139 668 3 8 65 -65 142 -165 75 -98 222 -286 326 -418z"/>
<path d="M20875 44261 c-48 -12 -69 -27 -119 -84 -29 -34 -91 -83 -166 -132
-66 -43 -120 -82 -120 -86 0 -5 -16 -11 -35 -15 -31 -5 -40 -14 -62 -58 -14
-28 -53 -77 -86 -109 -51 -51 -60 -64 -61 -98 -1 -47 21 -78 99 -141 l59 -48
259 0 c169 0 256 3 252 10 -9 15 16 12 81 -10 32 -12 102 -32 154 -47 114 -31
143 -26 290 42 121 56 253 76 380 57 80 -11 192 -62 258 -117 15 -12 48 -34
74 -49 34 -20 73 -61 138 -144 50 -64 111 -143 136 -175 25 -32 75 -78 112
-103 37 -25 88 -60 114 -78 26 -19 66 -37 88 -41 22 -4 63 -22 91 -41 27 -19
54 -32 59 -29 6 3 10 -1 10 -10 0 -8 7 -32 16 -53 9 -21 17 -67 18 -105 l1
-67 -78 -30 c-75 -28 -86 -30 -255 -32 -97 -2 -246 1 -329 6 l-153 9 -37 -25
c-21 -13 -57 -37 -80 -51 -28 -18 -51 -44 -67 -75 -13 -26 -33 -56 -45 -66
-12 -11 -21 -29 -21 -40 0 -44 78 -196 127 -250 53 -57 93 -145 93 -202 0 -28
11 -46 66 -104 82 -86 160 -146 271 -206 121 -66 167 -82 304 -101 l122 -17
51 26 c28 15 59 29 69 32 9 3 17 9 17 14 0 5 -40 47 -88 93 -48 46 -105 103
-125 125 l-37 41 15 44 c21 57 42 79 78 79 16 0 88 -23 159 -51 127 -50 133
-51 203 -46 98 9 117 18 154 74 29 42 32 54 27 95 -2 25 -16 80 -30 120 -31
88 -48 208 -44 297 4 80 18 93 139 122 l87 22 118 -64 c175 -94 175 -94 253
-81 202 35 200 34 225 115 24 78 31 144 16 162 -6 8 -40 30 -74 49 -90 50
-167 117 -252 218 -109 130 -106 121 -103 318 2 115 -1 173 -9 183 -6 7 -93
40 -194 73 l-182 59 -137 147 c-100 108 -141 159 -151 190 -16 47 -9 44 -139
66 -48 9 -71 7 -150 -13 -52 -13 -130 -28 -173 -34 -75 -9 -83 -8 -152 19 -97
37 -190 104 -259 188 -64 76 -109 112 -142 112 -12 0 -57 -11 -100 -25 -43
-14 -93 -25 -112 -25 -19 0 -64 -12 -100 -27 -61 -25 -76 -27 -206 -26 -130 1
-144 3 -192 26 -35 18 -66 45 -96 84 -40 52 -53 61 -129 91 -82 32 -130 38
-193 23z"/>
<path d="M35686 40338 c-8 -13 -28 -95 -45 -183 -17 -88 -38 -191 -46 -230 -9
-38 -15 -98 -15 -133 l0 -62 103 -49 c90 -42 110 -56 150 -105 l47 -58 0 -189
0 -189 -74 0 -75 0 -3 -42 -3 -43 -72 -3 -73 -3 0 -179 0 -180 76 0 c70 0 80
-3 145 -40 38 -23 69 -43 69 -46 0 -2 -32 -45 -71 -95 -60 -76 -75 -90 -93
-84 -12 4 -41 9 -66 12 -44 5 -46 4 -70 -33 -28 -43 -107 -101 -220 -163 l-75
-41 149 0 149 0 101 44 c79 35 117 46 176 50 41 3 141 17 222 31 112 19 182
25 292 25 144 0 146 0 211 32 l65 32 0 117 0 117 68 48 c37 26 71 50 75 54 5
4 -20 31 -55 60 -35 29 -131 115 -213 191 -150 138 -150 138 -169 206 -11 37
-54 147 -96 243 -42 96 -86 198 -97 225 l-19 50 -88 3 -87 3 -19 42 c-17 36
-20 67 -20 227 l0 185 -61 39 c-41 27 -72 56 -91 88 -33 53 -59 61 -82 26z"/>
<path d="M33830 39709 c-19 -12 -107 -72 -195 -133 l-160 -111 -164 -5 -164
-5 -55 -102 -54 -103 49 0 c26 -1 91 -7 143 -14 76 -10 111 -21 177 -54 l83
-42 329 0 330 0 42 74 42 74 71 4 c122 8 264 80 341 174 l37 45 -21 20 c-11
11 -21 31 -21 45 l0 25 -242 -3 c-277 -3 -312 3 -390 71 -77 68 -117 77 -178
40z"/>
<path d="M23399 38263 c-42 -49 -117 -141 -168 -205 -132 -168 -165 -194 -426
-339 -90 -50 -185 -135 -185 -165 0 -27 36 -59 84 -74 61 -20 150 -15 290 15
181 39 219 34 365 -41 l114 -58 91 -1 c83 0 97 3 158 33 113 55 178 151 178
262 l0 47 -86 17 c-235 46 -295 134 -310 454 -5 97 -11 142 -19 142 -6 0 -45
-39 -86 -87z"/>
<path d="M37965 36068 c-4 -12 -40 -90 -81 -173 -95 -191 -112 -258 -125 -490
-20 -364 -22 -488 -10 -548 30 -139 114 -146 234 -18 66 71 78 118 76 318 -1
224 4 238 138 371 136 136 166 196 143 284 -20 74 -59 104 -170 133 -98 25
-128 43 -165 97 -31 47 -33 48 -40 26z"/>
<path d="M14490 30296 c-69 -37 -162 -84 -207 -107 -83 -40 -83 -40 -83 -79 0
-28 5 -40 18 -44 176 -53 301 -61 426 -27 39 11 106 22 148 25 l77 7 183 -87
c495 -234 930 -427 1088 -482 71 -24 80 -25 118 -13 39 13 105 11 145 -5 15
-5 17 2 17 59 l0 64 -58 21 c-107 39 -170 93 -302 256 -36 44 -76 80 -115 103
-33 19 -78 50 -100 67 -22 18 -78 52 -123 76 -46 24 -86 49 -89 57 -16 42
-135 56 -243 28 -57 -15 -58 -15 -121 15 -35 16 -84 34 -109 39 -46 11 -417
74 -500 86 -42 6 -54 2 -170 -59z"/>
<path d="M17466 29486 c9 -22 -110 -30 -171 -12 -53 17 -115 20 -177 10 l-38
-7 0 -61 c0 -37 8 -85 22 -123 l21 -62 -39 -51 c-50 -66 -136 -115 -219 -125
-44 -5 -285 -68 -302 -79 -1 -1 88 -1 196 0 184 1 202 3 244 23 l47 23 26 -21
c33 -26 125 -28 259 -6 57 9 147 13 246 12 l155 -2 60 36 c93 58 116 67 190
80 67 11 214 58 263 84 24 12 24 12 -12 19 -41 8 -77 46 -77 84 0 21 -3 23
-22 17 -39 -13 -69 -7 -212 40 -76 25 -171 50 -210 55 -69 9 -92 15 -203 59
-39 15 -51 17 -47 7z"/>
</g>
</svg>
